<?xml version="1.0" encoding="UTF-8" standalone="no"?>
<svg
   xmlns:dc="http://purl.org/dc/elements/1.1/"
   xmlns:cc="http://creativecommons.org/ns#"
   xmlns:rdf="http://www.w3.org/1999/02/22-rdf-syntax-ns#"
   xmlns:svg="http://www.w3.org/2000/svg"
   xmlns="http://www.w3.org/2000/svg"
   xmlns:sodipodi="http://sodipodi.sourceforge.net/DTD/sodipodi-0.dtd"
   xmlns:inkscape="http://www.inkscape.org/namespaces/inkscape"
   width="180mm"
   height="90mm"
   viewBox="0 0 180 90"
   version="1.1"
   id="svg8"
   inkscape:version="1.0.2 (e86c8708, 2021-01-15)"
   sodipodi:docname="logo.svg">
  <defs
     id="defs2" />
  <sodipodi:namedview
     id="base"
     pagecolor="#ffffff"
     bordercolor="#666666"
     borderopacity="1.0"
     inkscape:pageopacity="0.0"
     inkscape:pageshadow="2"
     inkscape:zoom="11.2"
     inkscape:cx="602.25456"
     inkscape:cy="276.75966"
     inkscape:document-units="mm"
     inkscape:current-layer="layer1"
     inkscape:document-rotation="0"
     showgrid="false"
     inkscape:window-width="1280"
     inkscape:window-height="683"
     inkscape:window-x="0"
     inkscape:window-y="305"
     inkscape:window-maximized="1" />
  <metadata
     id="metadata5">
    <rdf:RDF>
      <cc:Work
         rdf:about="">
        <dc:format>image/svg+xml</dc:format>
        <dc:type
           rdf:resource="http://purl.org/dc/dcmitype/StillImage" />
        <dc:title />
      </cc:Work>
    </rdf:RDF>
  </metadata>
  <g
     inkscape:label="Layer 1"
     inkscape:groupmode="layer"
     id="layer1"
     style="display:inline;opacity:0.434084" />
  <g
     inkscape:groupmode="layer"
     id="layer2"
     inkscape:label="letrero">
    <path
       style="fill:#ffffff;fill-opacity:1;stroke:#000000;stroke-width:0.26458300000000001px;stroke-linecap:butt;stroke-linejoin:miter;stroke-opacity:1"
       d="m 17.07184,3.5413212 c 0,0 -0.300678,-0.534539 0.400904,-1.002261 0.701583,-0.467722 5.545844,-0.734991 5.545844,-0.734991 0,0 1.336347,-0.367496 1.336347,0.868626 0,1.236122 0.03341,23.8538058 0.03341,23.8538058 l 6.314241,0.03341 c 0,0 0.768401,0.03341 0.768401,0.801806 0,0.768401 0.06682,2.505652 0.06682,2.505652 0,0 -0.06682,0.902036 -0.868627,0.968854 -0.801807,0.06681 -8.285353,0.300678 -9.989199,0.133633 -1.703842,-0.167042 -3.207234,-0.701582 -3.207234,-0.701582 0,0 -0.434313,-0.267269 -0.434313,-1.637025 0,-1.369756 0.03341,-25.0899268 0.03341,-25.0899268 z"
       id="path865" />
    <path
       id="path869"
       style="fill:#ffffff;fill-opacity:1;stroke:#000000;stroke-width:0.99999899999999997px;stroke-linecap:butt;stroke-linejoin:miter;stroke-opacity:1"
       d="M 168.7793 12.0625 C 164.3076 12.003209 159.74247 12.361886 155.33398 12.529297 C 141.22683 13.065011 134.26395 21.279299 130.87109 26.279297 C 127.47823 31.279287 133.01367 31.458984 133.01367 31.458984 L 149.79883 36.636719 C 152.08169 37.299051 153.92025 36.671748 155.56445 35.482422 C 155.56445 35.482422 156.5737 32.829048 162.06641 31.376953 C 167.55911 29.924859 168.44336 34.849609 168.44336 34.849609 C 168.44336 34.849609 168.69531 38.575448 168.69531 40.785156 C 168.69531 42.994865 166.22656 43.421875 166.22656 43.421875 C 166.22656 43.421875 149.26228 46.101564 141.22656 48.601562 C 133.19085 51.101561 127.47656 58.244698 127.47656 63.958984 C 127.47656 69.673271 129.62109 104.13672 129.62109 104.13672 C 135.87109 120.20815 161.76283 110.38756 166.94141 108.95898 C 172.11998 107.5304 176.40625 107.70898 176.40625 107.70898 C 176.40625 107.70898 199.62025 113.42271 203.54883 114.49414 C 207.4774 115.56557 206.58509 109.13728 206.76367 106.10156 C 206.94224 103.06585 204.26367 101.63728 199.26367 99.851562 C 194.26366 98.065849 194.44141 92.529297 194.44141 92.529297 L 194.26367 25.029297 C 188.00251 14.348491 178.61703 12.19294 168.7793 12.0625 z M 170.46289 58.841797 L 170.33789 91.923828 L 159.22461 94.955078 C 159.22461 94.955078 153.92177 96.595873 153.54297 92.302734 C 153.16416 88.009584 153.03906 69.953125 153.03906 69.953125 C 153.03906 69.953125 153.29026 63.638862 157.83594 61.871094 C 162.38162 60.103326 170.46289 58.841797 170.46289 58.841797 z "
       transform="scale(0.26458333)" />
    <path
       style="fill:#ffffff;fill-opacity:1;stroke:#000000;stroke-width:0.26458300000000001px;stroke-linecap:butt;stroke-linejoin:miter;stroke-opacity:1"
       d="m 13.02939,41.29314 -0.267271,18.708867 0.05011,1.085784 c 0,0 0.534538,0.902033 1.152599,1.035669 0.618062,0.133636 2.639288,1.269529 4.159383,-0.801809 l 4e-6,-4.092563 c 0,0 0.0167,-1.018965 0.952148,-1.1526 0.935443,-0.133635 6.715147,0.133635 6.715147,0.133635 0,0 1.486686,0.05011 1.536799,0.868626 0.05011,0.818512 0.150339,4.660512 0.150339,4.660512 0,0 0.532838,4.839704 -3.766642,7.296549 -4.299479,2.456846 -14.315848,0.04725 -14.315848,0.04725 0,0 -5.149925,-1.842633 -5.527902,-6.047619 -0.377976,-4.204985 0.09449,-24.426711 0.09449,-24.426711 0,0 0.236236,-4.346726 4.252233,-5.291667 4.015997,-0.94494 8.220982,-1.228422 11.008556,-0.897693 2.787575,0.330729 5.905878,0.850446 7.039807,2.22061 1.133928,1.370164 0.708705,0.661458 1.086681,1.984375 0.377976,1.322917 0.188988,8.551711 0.188988,8.551711 0,0 0.236235,0.992188 -0.94494,1.133929 -1.181176,0.141741 -6.709077,0.04725 -6.709077,0.04725 0,0 -1.393287,0.206124 -1.368231,-1.297267 0.02506,-1.503391 -0.141987,-4.067508 -0.141987,-4.067508 0,0 -0.233861,-2.004522 -2.338608,-2.104748 -2.104748,-0.100226 -2.772922,0.7684 -2.772922,0.7684 0,0 -0.334086,0.534535 -0.23386,1.637024 z"
       id="path875" />
    <path
       id="path877"
       style="fill:#ffffff;fill-opacity:1;stroke:#000000;stroke-width:0.99999899999999997px;stroke-linecap:butt;stroke-linejoin:miter;stroke-opacity:1"
       d="M 167.92383 117.61914 C 132.63668 117.66627 118.72656 146.99414 118.72656 146.99414 C 117.11941 150.47628 122.20898 151.36914 122.20898 151.36914 C 122.20898 151.36914 142.12054 156.99443 145.78125 157.35156 C 149.44196 157.70871 152.12026 154.76116 152.92383 153.42188 C 153.7274 152.08259 159.26367 148.1543 159.26367 148.1543 C 166.85296 144.04715 168.90625 150.83398 168.90625 150.83398 C 168.90625 150.83398 169.53125 158.95843 169.53125 162.61914 C 169.53125 166.27985 164.26367 166.81641 164.26367 166.81641 C 164.26367 166.81641 139.88756 172.08315 127.83398 177.88672 C 115.7804 183.69029 115.69141 199.04688 115.69141 199.04688 C 115.69141 199.04687 116.22824 240.56641 116.49609 244.94141 C 116.76395 249.31642 117.38867 249.4043 117.38867 249.4043 C 117.38867 249.4043 118.3697 257.61998 130.33398 265.56641 C 142.29827 273.51284 158.28125 269.04688 158.28125 269.04688 L 172.47656 266.19141 L 176.67383 269.13672 C 176.67383 269.13672 176.76227 269.13672 184.35156 275.38672 C 191.94085 281.63672 213.10184 283.51172 215.95898 282.88672 C 218.81614 282.26172 218.90625 279.67188 218.90625 279.67188 L 219.08398 274.31641 L 219.08398 269.31641 C 219.08398 264.31639 213.01367 263.95898 213.01367 263.95898 L 209.97656 262.88672 C 203.19084 256.63672 203.37109 242.88672 203.37109 242.88672 L 202.83398 138.60156 C 198.01255 116.81585 171.40625 117.70898 171.40625 117.70898 C 170.22321 117.6476 169.06212 117.61762 167.92383 117.61914 z M 171.22656 190.20898 L 172.12109 238.06641 L 172.10547 239.97461 C 172.10547 239.97461 172.16825 241.80611 170.96875 242.24805 C 169.76919 242.69 158.65625 245.4668 158.65625 245.4668 C 158.65625 245.4668 150.76475 246.47728 149.88086 241.74219 C 148.99698 237.0071 148.61914 230.37695 148.61914 230.37695 L 149.03906 204.58398 C 149.03906 204.58398 149.79855 195.65458 157.25391 193.51172 C 164.70927 191.36886 171.22656 190.20898 171.22656 190.20898 z "
       transform="scale(0.26458333)" />
    <path
       id="path881"
       style="fill:#ffffff;fill-opacity:1;stroke:#000000;stroke-width:0.99999899999999997px;stroke-linecap:butt;stroke-linejoin:miter;stroke-opacity:1"
       d="M 263.37109 43.761719 C 263.14332 43.768394 263.01367 43.779297 263.01367 43.779297 C 263.01367 43.779297 245.8697 43.958136 240.33398 44.136719 C 234.79827 44.31529 235.51367 49.136719 235.51367 49.136719 L 236.12305 240.16406 C 235.4917 242.81571 232.46094 243.19336 232.46094 243.19336 C 232.46094 243.19336 224.88446 244.58291 221.22266 245.4668 C 217.56085 246.35068 219.33008 249.50781 219.33008 249.50781 C 219.33008 249.50781 222.35986 255.19054 224.25391 259.35742 C 226.14793 263.5243 234.10352 262.51367 234.10352 262.51367 L 254.17969 259.73633 L 266.04883 263.01758 C 266.04883 263.01758 272.7415 264.65976 300.01562 263.14453 C 327.28973 261.62931 328.17383 235.87109 328.17383 235.87109 C 328.17383 235.87109 330.95026 181.06976 327.54102 164.02344 C 324.13173 146.97711 296.10156 145.83984 296.10156 145.83984 L 271.35156 145.9668 C 271.35156 145.9668 271.10029 56.442258 271.22656 49.75 C 271.33705 43.894271 264.96554 43.714992 263.37109 43.761719 z M 284.71289 169.68359 C 289.42962 169.76379 293.07031 170.7793 293.07031 170.7793 C 293.07031 170.7793 297.11157 171.22073 298.05859 181.32227 L 297.86914 233.59766 C 297.86914 233.59766 297.11107 237.63755 293.63867 238.33203 C 290.16627 239.02651 279.30624 239.21719 275.26562 238.20703 C 271.22502 237.19688 269.01567 234.41907 269.20508 231.19922 L 269.58398 178.22852 C 269.58398 178.22852 270.34246 172.04252 277.85547 170.33789 C 280.20328 169.80519 282.56892 169.64714 284.71289 169.68359 z "
       transform="scale(0.26458333)" />
    <path
       id="path877-1"
       style="fill:#ffffff;fill-opacity:1;stroke:#000000;stroke-width:0.99999899999999997px;stroke-linecap:butt;stroke-linejoin:miter;stroke-opacity:1"
       d="M 392.83398 105.37109 C 357.54683 105.41822 343.63867 134.74414 343.63867 134.74414 C 342.03154 138.22628 347.11914 139.11914 347.11914 139.11914 C 347.11914 139.11914 367.03067 144.74443 370.69141 145.10156 C 374.35211 145.45871 377.03042 142.51312 377.83398 141.17383 C 378.63756 139.83454 384.17383 135.90625 384.17383 135.90625 C 391.76312 131.79911 393.81641 138.58398 393.81641 138.58398 C 393.81641 138.58398 394.44141 146.70843 394.44141 150.36914 C 394.44141 154.02985 389.17383 154.56641 389.17383 154.56641 C 389.17383 154.56641 364.79773 159.8351 352.74414 165.63867 C 340.69047 171.44225 340.60156 186.79883 340.60156 186.79883 C 340.60156 186.79883 341.13828 228.31641 341.40625 232.69141 C 341.67411 237.06642 342.29883 237.15625 342.29883 237.15625 C 342.29883 237.15625 343.27986 245.36998 355.24414 253.31641 C 367.20842 261.26284 383.19141 256.79883 383.19141 256.79883 L 397.38867 253.94141 L 401.58398 256.88867 C 401.58398 256.88867 401.67438 256.88868 409.26367 263.13867 C 416.85296 269.38867 438.01197 271.26367 440.86914 270.63867 C 443.72635 270.01367 443.81641 267.42383 443.81641 267.42383 L 443.99609 262.06641 L 443.99609 257.06641 C 443.99609 252.06639 437.92383 251.70898 437.92383 251.70898 L 434.88867 250.63867 C 428.10313 244.38867 428.28125 230.63867 428.28125 230.63867 L 427.74609 126.35156 C 422.92466 104.56585 396.31641 105.45898 396.31641 105.45898 C 395.13337 105.3976 393.97228 105.36957 392.83398 105.37109 z M 396.13867 177.95898 L 397.03125 225.81641 L 397.01562 227.72461 C 397.01562 227.72461 397.07845 229.55611 395.87891 229.99805 C 394.67936 230.44 383.56836 233.21875 383.56836 233.21875 C 383.56836 233.21875 375.67685 234.22728 374.79297 229.49219 C 373.90909 224.7571 373.5293 218.12891 373.5293 218.12891 L 373.95117 192.33398 C 373.95117 192.33398 374.71066 183.40653 382.16602 181.26367 C 389.6214 179.12081 396.13867 177.95898 396.13867 177.95898 z "
       transform="scale(0.26458333)" />
    <path
       id="path877-3"
       style="fill:#ffffff;fill-opacity:1;stroke:#000000;stroke-width:0.90307300000000001px;stroke-linecap:butt;stroke-linejoin:miter;stroke-opacity:1"
       d="M 615.22266 118.53711 C 583.35577 118.57967 570.79492 145.06445 570.79492 145.06445 C 569.34351 148.20908 573.93945 149.01562 573.93945 149.01562 C 573.93945 149.01562 591.92065 154.09546 595.22656 154.41797 C 598.53244 154.74049 600.95203 152.07862 601.67773 150.86914 C 602.4034 149.65967 607.40234 146.11133 607.40234 146.11133 C 614.25606 142.40227 616.10938 148.53125 616.10938 148.53125 C 616.10938 148.53125 616.67383 155.86793 616.67383 159.17383 C 616.67383 162.47972 611.91797 162.96484 611.91797 162.96484 C 611.91797 162.96484 589.9048 167.72184 579.01953 172.96289 C 568.13415 178.20395 568.05469 192.07227 568.05469 192.07227 C 568.05469 192.07227 568.53741 229.56468 568.7793 233.51562 C 569.02119 237.46658 569.58594 237.54883 569.58594 237.54883 C 569.58594 237.54883 570.47273 244.96637 581.27734 252.14258 C 592.08199 259.31879 606.51562 255.28711 606.51562 255.28711 L 619.33594 252.70703 L 623.125 255.36719 C 623.125 255.36719 623.20491 255.36751 630.05859 261.01172 C 636.91224 266.65593 656.02331 268.34958 658.60352 267.78516 C 661.18387 267.22074 661.26367 264.88281 661.26367 264.88281 L 661.42578 260.04492 L 661.42578 255.5293 C 661.42578 251.01391 655.94141 250.69141 655.94141 250.69141 L 653.20117 249.72266 C 647.07308 244.07845 647.23438 231.66211 647.23438 231.66211 L 646.75 137.48438 C 642.39591 117.81027 618.36719 118.61719 618.36719 118.61719 C 617.29882 118.56175 616.25062 118.53574 615.22266 118.53711 z M 618.20508 184.08984 L 618.20703 184.08984 L 619.01367 227.30859 L 618.99805 229.03125 C 618.99805 229.03125 619.05407 230.68488 617.9707 231.08398 C 616.88741 231.48309 606.85352 233.99219 606.85352 233.99219 C 606.85352 233.99219 599.72593 234.90504 598.92773 230.62891 C 598.1295 226.35277 597.78906 220.36523 597.78906 220.36523 L 598.16797 197.07031 C 598.16797 197.07031 598.85316 189.00743 605.58594 187.07227 C 612.31864 185.13711 618.20508 184.08984 618.20508 184.08984 z "
       transform="scale(0.26458333)" />
    <path
       style="fill:#ffffff;fill-opacity:1;stroke:#000000;stroke-width:0.26458300000000001px;stroke-linecap:butt;stroke-linejoin:miter;stroke-opacity:1"
       d="m 122.31655,29.064829 c 1.70089,-0.18899 6.32362,-0.383469 6.32362,-0.383469 0,0 1.48668,-0.08352 1.65373,0.718288 l 4.42665,-0.584652 c 0,0 9.33773,-1.403165 10.15624,5.178347 0.81852,6.581512 1.06908,34.527882 1.06908,34.527882 0,0 0.16704,1.319643 -0.81851,1.520096 -0.98556,0.200452 -7.6673,0.400904 -7.6673,0.400904 0,0 -0.98555,0.133635 -1.38646,-0.985556 -0.4009,-1.119192 -0.14991,-30.422719 -0.14991,-30.422719 0,0 -0.0472,-2.62221 -1.79538,-2.787574 -1.74814,-0.165365 -2.59859,-0.04725 -3.42541,1.252046 -0.82683,1.299293 0.42522,29.883743 0.42522,29.883743 l 0.0236,1.81901 c 0,0 -0.0945,0.755952 -0.94494,0.897694 -0.85044,0.141741 -7.44656,0.326652 -7.44656,0.326652 0,0 -1.35305,0.100226 -1.45328,-1.1526 -0.10022,-1.252826 0.0174,-38.932423 0.0174,-38.932423 0,0 -0.0945,-1.417409 0.99219,-1.275669 z"
       id="path921" />
    <path
       style="fill:#ffffff;fill-opacity:1;stroke:#000000;stroke-width:0.26458300000000001px;stroke-linecap:butt;stroke-linejoin:miter;stroke-opacity:1"
       d="m 120.88935,22.56757 c 0,0 3.00678,1.369755 7.71741,0.100226 4.71062,-1.269531 7.56707,-1.00226 7.56707,-1.00226 0,0 5.56254,0.183748 7.06593,1.603616 0,0 0.27563,0.258919 1.45328,-0.451016 1.17766,-0.709935 1.1526,-1.085783 1.1526,-1.085783 0,0 0.0752,-0.325734 -0.0919,-0.392552 -0.16704,-0.06682 -0.43431,-0.03341 -0.33409,-0.342439 0.10023,-0.30903 0.0752,-0.267269 0.0752,-0.267269 0,0 0.11693,-0.350792 0.35915,-0.167044 0.24221,0.183748 0.81851,0.551244 0.64311,1.110839 -0.17539,0.559596 -0.9605,1.26953 -0.9605,1.26953 l -1.3447,1.018966 c 0,0 0.88533,0.668173 0.0501,1.378108 -0.83522,0.709935 -1.22777,0.893683 -1.22777,0.893683 0,0 -2.02958,0.734991 -3.41604,0.709934 -1.38646,-0.02506 -1.87924,-0.05011 -1.87924,-0.05011 0,0 -0.72664,-0.150339 -1.17766,-0.292326 -0.45101,-0.141987 -4.12597,-0.910387 -5.98015,-0.342439 -1.85418,0.567948 -3.34922,0.69323 -3.34922,0.69323 0,0 -3.37428,-0.03341 -4.58535,-0.977204 -1.21106,-0.943795 -2.56411,-1.7289 -2.85644,-2.397073 -0.29232,-0.668174 0.0334,-1.069079 0.0334,-1.069079 0,0 0.50113,-0.53454 1.08578,0.05846 z"
       id="path923" />
  </g>
  <g
     inkscape:groupmode="layer"
     id="layer3"
     inkscape:label="slogan">
    <path
       style="fill:#ffffff;fill-opacity:1;stroke:#000000;stroke-width:0.26458300000000001px;stroke-linecap:butt;stroke-linejoin:miter;stroke-opacity:1"
       d="m 61.95847,70.831196 0.850448,-0.02363 c 0,0 0.637834,0.496094 0.02363,0.921319 -0.614211,0.425222 -1.039437,-0.118118 -1.039437,-0.118118 0,0 -0.165364,-0.4016 0.165365,-0.779576 z"
       id="path926" />
    <path
       style="fill:#ffffff;fill-opacity:1;stroke:#000000;stroke-width:0.26458300000000001px;stroke-linecap:butt;stroke-linejoin:miter;stroke-opacity:1"
       d="m 61.41513,72.815571 c 0,0 0.519718,-1.41741 1.181177,-0.377975 0.661458,1.039434 -0.87407,3.401784 -0.87407,3.401784 0,0 -0.779576,0.614212 -1.157552,0.09449 0,0 -0.118117,-0.09449 0,-0.519711 l 0.4016,-0.944941 c 0,0 0,0.425223 0.448845,-1.653647 z"
       id="path928" />
    <path
       style="fill:#ffffff;fill-opacity:1;stroke:#000000;stroke-width:0.26458300000000001px;stroke-linecap:butt;stroke-linejoin:miter;stroke-opacity:1"
       d="m 63.541248,72.969125 c 0,0 -0.03544,-0.626023 0.48428,-0.720519 0.519718,-0.09449 0.944941,-0.2008 1.27567,-0.05906 0.330729,0.14174 0.318918,0.555151 0.318918,0.555151 0,0 0.992187,-1.41741 1.724517,-0.437033 0,0 0.519717,0.626026 0.543341,1.32292 0.02362,0.696893 0.165364,1.405599 0.165364,1.405599 l 0.02362,0.602399 c 0,0 0,0.318918 -0.590588,0.354353 -0.590588,0.03543 -0.87407,-0.153553 -0.87407,-0.153553 0,0 -0.106306,-0.129929 -0.04725,-0.496094 0.05906,-0.366164 -0.129929,-1.700893 -0.129929,-1.700893 0,0 -0.779576,0.791388 -1.523717,0.03544 l -0.02362,1.252042 c 0,0 0.08268,0.696893 -0.330729,0.732329 -0.413412,0.03543 -0.838635,0.03543 -0.838635,0.03543 0,0 -0.224423,0.08268 -0.188988,-0.307106 0.03544,-0.389788 0.01181,-2.42141 0.01181,-2.42141 z"
       id="path930" />
    <path
       style="fill:#ffffff;fill-opacity:1;stroke:#000000;stroke-width:0.26458300000000001px;stroke-linecap:butt;stroke-linejoin:miter;stroke-opacity:1"
       d="m 70.002277,73.004561 c -0.05906,0.224422 0.09449,1.594585 0.09449,1.594585 0,0 0.271671,1.157552 0.732329,0.02363 l -0.118112,-1.901698 c 0,0 -0.2008,-0.47247 0.34254,-0.448846 0.543341,0.02362 0.673271,-0.01181 0.673271,-0.01181 0,0 0.47247,-0.212612 0.401599,0.425223 -0.07087,0.637835 -0.03544,1.736328 -0.03544,1.736328 0,0 0.05906,1.039435 -0.649647,1.240235 -0.708705,0.200799 -1.063058,0.236235 -1.063058,0.236235 0,0 -1.192987,0.05906 -1.322916,-0.590588 -0.12993,-0.649647 -0.177177,-1.098493 -0.177177,-1.098493 0,0 0.07087,-0.791388 0.283483,-1.181176 0.212611,-0.389788 0.507905,-0.248047 0.507905,-0.248047 0,0 0.389786,0.08268 0.330728,0.224424 z"
       id="path932" />
    <path
       style="fill:#ffffff;fill-opacity:1;stroke:#000000;stroke-width:0.26458300000000001px;stroke-linecap:butt;stroke-linejoin:miter;stroke-opacity:1"
       d="m 75.494744,72.886443 c 0,0 -0.744141,0.283482 -1.039434,1.322916 -0.295294,1.039434 0.153551,1.204799 0.153551,1.204799 0,0 0.25986,0.224422 0.720518,-0.224425 l 0.53153,-0.106303 c 0,0 0.87407,0.129929 0.389788,0.496093 -0.484282,0.366165 -1.122117,0.649647 -1.689081,0.590588 -0.566964,-0.05906 -1.086682,-0.212611 -1.287481,-0.602399 -0.2008,-0.389788 -0.33073,-1.228423 0.05906,-1.74814 0.389788,-0.519718 0.779576,-1.027623 0.779576,-1.027623 0,0 0.543341,-0.496094 1.157552,-0.555153 0.614212,-0.05906 0.897694,0.106306 0.897694,0.106306 0,0 0.437035,0.248047 0.08268,0.67327 -0.354353,0.425224 -0.755953,-0.129929 -0.755953,-0.129929 z"
       id="path934" />
    <path
       style="fill:#ffffff;fill-opacity:1;stroke:#000000;stroke-width:0.26458300000000001px;stroke-linecap:butt;stroke-linejoin:miter;stroke-opacity:1"
       d="m 77.502741,72.354913 -0.09449,2.303293 c 0,0 -0.0118,0.48428 -0.165365,0.649645 -0.153553,0.165365 -0.212611,0.389789 -0.212611,0.389789 0,0 -0.0118,0.377976 0.177176,0.437034 0.188989,0.05906 0.874069,0.01183 0.874069,0.01183 0,0 0.271672,-0.0945 0.318918,-0.377979 0.04725,-0.28348 0.153554,-0.862256 0.153554,-0.862256 l 0.413411,-0.05906 -0.05906,0.767765 c 0,0 -0.08268,0.33073 0.307107,0.484281 0.389787,0.153553 0.87407,-0.0118 0.87407,-0.0118 0,0 0.318918,-0.259858 0.330729,-0.54334 0.0118,-0.283483 -0.07087,-2.445033 -0.07087,-2.445033 l -0.03544,-0.578776 c 0,0 0.07087,-0.425223 -0.271669,-0.437036 -0.34254,-0.0118 -0.661458,0.08268 -0.696894,0.09449 -0.03544,0.0118 -0.05906,0.224423 -0.07087,0.519716 -0.0118,0.295294 -0.118118,1.523717 -0.118118,1.523717 l -0.543341,0.0118 0.03544,-1.381974 c 0,0 -0.05906,-0.590587 -0.425222,-0.685083 -0.366165,-0.09449 -0.720519,0.188989 -0.720519,0.188989 z"
       id="path936" />
    <path
       id="path938"
       style="fill:#ffffff;fill-opacity:1;stroke:#000000;stroke-width:0.99999899999999997px;stroke-linecap:butt;stroke-linejoin:miter;stroke-opacity:1"
       d="M 315.69141 273.25781 C 315.16197 273.26409 314.58761 273.32171 313.99609 273.4668 C 311.63002 274.04716 310.24556 276.23577 310.15625 276.45898 C 306.58482 281.68219 308.01367 284.22656 308.01367 284.22656 C 308.01367 284.22656 310.02149 286.50221 311.27148 286.85938 C 312.52148 287.21654 313.41546 287.30635 314.88867 286.94922 C 316.36188 286.59208 318.36969 285.25334 318.77148 284.53906 C 319.17326 283.82477 319.97824 282.44112 320.87109 278.64648 C 321.76395 274.85184 318.45898 273.69141 318.45898 273.69141 C 318.45898 273.69141 317.27972 273.23898 315.69141 273.25781 z M 314.66406 276.23438 C 314.66406 276.23438 317.38839 279.44894 313.28125 283.7793 C 311.3616 280.87751 314.66406 276.23438 314.66406 276.23438 z "
       transform="scale(0.26458333)" />
    <path
       style="fill:#ffffff;fill-opacity:1;stroke:#000000;stroke-width:0.26458300000000001px;stroke-linecap:butt;stroke-linejoin:miter;stroke-opacity:1"
       d="m 89.775156,72.673831 c 0,0 -0.64964,0.05906 -0.18899,0.496094 0.46066,0.437034 0.75595,0.519716 0.75595,0.519716 0,0 0.98038,0.507905 0.75596,1.228423 -0.22443,0.720516 -0.67327,0.803198 -0.67327,0.803198 0,0 -0.4016,0.271672 -1.06306,0.224425 -0.66146,-0.04725 -0.93313,-0.307107 -0.93313,-0.307107 0,0 -0.34254,-0.330729 -0.0472,-0.496094 0.2953,-0.165364 0.77958,-0.08268 0.77958,-0.08268 0,0 0.0945,0.05906 0.33073,0.08268 0.23623,0.02363 0.18899,-0.555151 0.18899,-0.555151 0,0 -0.0472,-0.34254 -0.31892,-0.448847 -0.27167,-0.106307 -1.09849,-0.73233 -1.09849,-0.73233 0,0 -0.43704,-0.54334 0.0236,-0.826823 0.46066,-0.283482 1.05125,-0.413411 1.05125,-0.413411 0,0 0.34254,-0.08268 0.70871,-0.03544 0.36616,0.04725 0.47247,0.212614 0.47247,0.212614 0,0 0.15355,0.200798 -0.0354,0.28348 -0.18899,0.08268 -0.62602,0.05906 -0.70871,0.04725 z"
       id="path942" />
    <path
       id="path944"
       style="fill:#ffffff;fill-opacity:1;stroke:#000000;stroke-width:0.99999899999999997px;stroke-linecap:butt;stroke-linejoin:miter;stroke-opacity:1"
       d="M 354.79688 272.86328 C 354.13377 272.91037 353.43136 273.20034 352.87891 274.00391 C 351.40572 276.14677 349.21875 282.5293 349.21875 282.5293 L 348.28125 285.60938 C 348.28125 285.60938 347.74499 285.78964 347.56641 286.50391 C 347.38801 287.2182 347.83398 287.88672 347.83398 287.88672 C 347.83398 287.88672 349.26313 288.51171 350.11133 287.57422 C 350.95957 286.63672 352.96875 284.22656 352.96875 284.22656 L 356.53906 284.0918 L 357.34375 285.69922 C 357.34375 285.69922 358.19084 287.12834 359.66406 287.66406 C 361.13728 288.19977 362.92383 286.85938 362.92383 286.85938 C 362.92383 286.85938 363.72795 285.78823 362.38867 283.7793 C 361.04936 281.77036 356.89648 273.37891 356.89648 273.37891 C 356.89648 273.37891 355.90205 272.78481 354.79688 272.86328 z M 354.44141 278.42188 L 355.91406 281.9043 L 353.50391 281.94922 L 354.44141 278.42188 z "
       transform="scale(0.26458333)" />
    <path
       id="path948"
       style="fill:#ffffff;fill-opacity:1;stroke:#000000;stroke-width:0.99999899999999997px;stroke-linecap:butt;stroke-linejoin:miter;stroke-opacity:1"
       d="M 370.49414 272.50781 C 369.59221 272.47642 368.77175 272.55299 368.50391 272.75391 C 368.14674 273.02176 367.07532 273.24386 367.25391 273.82422 C 367.4323 274.40458 367.87835 274.62834 368.41406 274.85156 C 368.41406 274.85156 368.81746 276.36886 368.37109 277.26172 C 367.92466 278.15458 366.18359 282.70898 366.18359 282.70898 C 366.18359 282.70898 365.37945 285.60994 365.78125 286.63672 C 366.18301 287.66351 365.60259 288.6462 367.92383 288.60156 C 370.24525 288.55696 374.21875 286.77148 374.21875 286.77148 C 374.21875 286.77148 374.21818 286.72577 375.69141 285.0293 C 377.16463 283.33287 377.0756 282.84236 376.98633 282.30664 C 376.89713 281.77093 376.67349 281.27986 376.00391 280.74414 C 375.33425 280.20843 374.53042 280.07477 375.33398 279.85156 C 376.13759 279.62834 377.03154 278.91323 377.38867 278.4668 C 377.74584 278.02037 378.14726 276.904 377.65625 276.23438 C 377.16518 275.56473 375.5569 274.04856 374.66406 273.69141 C 373.77119 273.33428 372.61162 272.70815 371.40625 272.57422 C 371.10491 272.54074 370.79478 272.51828 370.49414 272.50781 z M 371.92578 276.31836 C 372.06528 276.34626 372.27621 276.43611 372.56641 276.68164 C 373.14675 277.17272 371.71875 278.02148 371.71875 278.02148 L 371.71875 276.32422 C 371.71875 276.32422 371.78628 276.29046 371.92578 276.31836 z M 370.51367 281.50391 C 374.62073 282.57534 370.20117 285.0293 370.20117 285.0293 L 370.51367 281.50391 z "
       transform="scale(0.26458333)" />
    <path
       id="path954"
       style="fill:#ffffff;fill-opacity:1;stroke:#000000;stroke-width:0.99999899999999997px;stroke-linecap:butt;stroke-linejoin:miter;stroke-opacity:1"
       d="M 530.51367 273.33398 C 528.32616 273.24467 526.31641 274.13672 526.31641 274.13672 C 526.31641 274.13672 522.83454 277.17299 522.29883 279.53906 C 521.76312 281.90512 521.67383 283.64648 521.67383 283.64648 C 521.67383 283.64648 522.03071 285.7433 523.19141 286.23438 C 524.35214 286.72545 525.24498 287.48576 527.56641 287.39648 C 529.88787 287.30729 531.67383 285.87891 531.67383 285.87891 C 531.67383 285.87891 533.59262 284.0039 534.03906 282.44141 C 534.4855 280.87891 535.4238 276.23549 534.48633 275.47656 C 533.54882 274.71763 532.70119 273.42327 530.51367 273.33398 z M 529.29883 276.05859 C 530.37126 276.28526 529.60047 286.23129 527.25391 283.60156 C 524.66463 280.69975 528.90625 276.32422 528.90625 276.32422 C 529.05692 276.11496 529.18789 276.03515 529.29883 276.05859 z "
       transform="scale(0.26458333)" />
    <path
       id="path958"
       style="fill:#ffffff;fill-opacity:1;stroke:#000000;stroke-width:0.99999899999999997px;stroke-linecap:butt;stroke-linejoin:miter;stroke-opacity:1"
       d="M 401.74023 273.03711 C 399.88825 273.04338 397.87891 273.24414 397.87891 273.24414 C 397.87891 273.24414 396.67301 273.10995 396.53906 274.13672 C 395.69086 280.83315 395.60156 284.7168 395.60156 284.7168 C 395.60156 284.7168 395.06723 285.6105 396.76367 286.10156 C 398.46011 286.59263 400.24609 285.6543 400.24609 285.6543 L 400.46875 281.81641 L 404.26367 284.00391 C 404.26367 284.00391 407.43249 285.43191 408.50391 284.22656 C 409.57533 283.0212 408.28125 281.54688 408.28125 281.54688 L 403.28125 279.35938 C 403.28125 279.35938 404.7087 279.048 405.91406 277.66406 C 407.11943 276.28013 406.04883 274.62891 406.04883 274.62891 C 406.04883 274.62891 405.46792 273.33259 403.45898 273.10938 C 402.95675 273.05357 402.35756 273.03502 401.74023 273.03711 z M 400.73633 275.11914 C 404.93289 276.10129 400.60156 277.03906 400.60156 277.03906 L 400.73633 275.11914 z "
       transform="scale(0.26458333)" />
    <path
       style="fill:#ffffff;fill-opacity:1;stroke:#000000;stroke-width:0.26458300000000001px;stroke-linecap:butt;stroke-linejoin:miter;stroke-opacity:1"
       d="m 112.39467,72.732889 -0.79139,2.220611 c 0,0 -0.35435,0.815009 0.0118,1.086681 0.36616,0.271671 2.42141,0.03544 2.42141,0.03544 0,0 0.48428,-0.07087 0.7087,-0.165364 0.22443,-0.09449 0.2008,-0.425223 0.2008,-0.425223 0,0 -0.11811,-0.141742 -0.27166,-0.177178 -0.15356,-0.03544 -1.96076,0.0945 -1.96076,0.0945 V 75.09524 l 0.44885,-0.04725 c 0,0 1.07487,-0.188989 0.22442,-0.484283 l -0.47245,-0.01181 0.4016,-1.299294 1.21661,-0.106305 c 0,0 0.68508,-0.07087 0.68508,-0.342541 0,-0.271671 -0.86225,-0.295294 -0.86225,-0.295294 l -0.94494,0.118117 c 0,0 0.14174,-0.188988 -0.0827,-0.236235 -0.22442,-0.04725 -0.67327,0 -0.67327,0 0,0 -0.17718,-0.03544 -0.25986,0.34254 z"
       id="path962" />
    <path
       style="fill:#ffffff;fill-opacity:1;stroke:#000000;stroke-width:0.26458300000000001px;stroke-linecap:butt;stroke-linejoin:miter;stroke-opacity:1"
       d="m 115.86733,75.107051 c 0,-0.212611 0.12993,-1.145739 0.12993,-1.145739 0,0 0.0709,-1.381977 0.92132,-1.464659 0.85044,-0.08268 1.27567,1.511906 1.29929,1.429224 0.0236,-0.08268 0.2008,-1.027623 0.2008,-1.027623 0,0 0.0472,-0.850448 0.67327,-0.696894 0.62602,0.153553 0.14174,2.716704 0.14174,2.716704 0,0 0.0709,0.555152 -0.55515,0.614212 -0.62603,0.05906 -1.48829,-1.299295 -1.48829,-1.299295 l 0.0827,0.87407 c 0,0 0.0709,0.437036 -0.36617,0.448847 -0.43703,0.01183 -1.03943,0.106307 -1.03943,-0.448847 z"
       id="path964" />
    <path
       style="fill:#ffffff;fill-opacity:1;stroke:#000000;stroke-width:0.26458300000000001px;stroke-linecap:butt;stroke-linejoin:miter;stroke-opacity:1"
       d="m 157.23717,72.811732 c 0,0 -0.94494,1.476468 -0.0472,2.69308 0.89769,1.216613 2.56315,-0.330729 2.56315,-0.330729 0,0 0.34254,-0.413412 0.27167,-1.311106 -0.0709,-0.897694 -0.10631,-1.370163 -0.10631,-1.370163 0,0 -0.0827,-0.224425 -0.42522,-0.236236 -0.34254,-0.0118 -0.59059,0.0118 -0.59059,0.0118 0,0 -0.34254,-0.09449 -0.24804,0.59059 0.0945,0.68508 0.0709,1.771764 0.0709,1.771764 0,0 -0.30711,0.826823 -0.51972,0.472469 -0.21261,-0.354354 -0.31892,-1.133928 -0.31892,-1.133928 0,0 -0.1063,-0.578776 0.0118,-0.779576 0.11812,-0.2008 -0.0118,-0.413411 -0.0118,-0.413411 0,0 -0.37797,-0.188989 -0.64964,0.03544 z"
       id="path966" />
    <path
       style="fill:#ffffff;fill-opacity:1;stroke:#000000;stroke-width:0.26458300000000001px;stroke-linecap:butt;stroke-linejoin:miter;stroke-opacity:1"
       d="m 127.17118,75.130675 c 0.0236,-0.08268 -0.0827,-3.531713 1.41741,-2.598586 0,0 0.62602,0.484283 0.81501,1.263859 0,0 0.18899,-1.594587 0.93313,-1.630022 0.74414,-0.03544 0.61421,0.826823 0.61421,0.826823 l -0.38978,1.74814 c 0,0 -0.61422,1.689081 -1.7009,0.248047 0,0 -0.28348,-0.389788 -0.38979,-0.767765 0,0 0.51972,1.228423 -0.22442,1.322917 -0.74414,0.09449 -1.07487,-0.413413 -1.07487,-0.413413 z"
       id="path968" />
    <path
       style="fill:#ffffff;fill-opacity:1;stroke:#000000;stroke-width:0.26458300000000001px;stroke-linecap:butt;stroke-linejoin:miter;stroke-opacity:1"
       d="m 135.94195,72.589925 c 0,0 -0.64964,0.05906 -0.18899,0.496094 0.46066,0.437034 0.75595,0.519716 0.75595,0.519716 0,0 0.98038,0.507908 0.75596,1.228428 -0.22443,0.72051 -0.67327,0.80319 -0.67327,0.80319 0,0 -0.4016,0.27168 -1.06306,0.22443 -0.66146,-0.0473 -0.93313,-0.30711 -0.93313,-0.30711 0,0 -0.34254,-0.33073 -0.0472,-0.49609 0.2953,-0.16537 0.77958,-0.0827 0.77958,-0.0827 0,0 0.0945,0.0591 0.33073,0.0827 0.23623,0.0236 0.18899,-0.55515 0.18899,-0.55515 0,0 -0.0472,-0.34254 -0.31892,-0.44885 -0.27167,-0.10631 -1.09849,-0.732331 -1.09849,-0.732331 0,0 -0.43704,-0.54334 0.0236,-0.826823 0.46066,-0.283482 1.05125,-0.413411 1.05125,-0.413411 0,0 0.34254,-0.08268 0.70871,-0.03544 0.36616,0.04725 0.47247,0.212614 0.47247,0.212614 0,0 0.15355,0.200798 -0.0354,0.28348 -0.18899,0.08268 -0.62602,0.05906 -0.70871,0.04725 z"
       id="path942-8" />
    <path
       id="path954-2"
       style="fill:#ffffff;fill-opacity:1;stroke:#000000;stroke-width:0.99999899999999997px;stroke-linecap:butt;stroke-linejoin:miter;stroke-opacity:1"
       d="M 561.13867 272.9082 C 558.95116 272.81889 556.94336 273.71289 556.94336 273.71289 C 556.94336 273.71289 553.45954 276.74916 552.92383 279.11523 C 552.38812 281.48129 552.29883 283.2207 552.29883 283.2207 C 552.29883 283.2207 552.65767 285.31947 553.81836 285.81055 C 554.97909 286.30162 555.87194 287.05998 558.19336 286.9707 C 560.51482 286.88151 562.29883 285.45312 562.29883 285.45312 C 562.29883 285.45312 564.21958 283.57812 564.66602 282.01562 C 565.11245 280.45313 566.0488 275.81166 565.11133 275.05273 C 564.17382 274.2938 563.32619 272.99749 561.13867 272.9082 z M 559.92383 275.63477 C 560.99626 275.86143 560.22743 285.80746 557.88086 283.17773 C 555.29158 280.27593 559.53125 275.90039 559.53125 275.90039 C 559.68192 275.69113 559.81289 275.61132 559.92383 275.63477 z "
       transform="scale(0.26458333)" />
    <path
       style="fill:#ffffff;fill-opacity:1;stroke:#000000;stroke-width:0.26458300000000001px;stroke-linecap:butt;stroke-linejoin:miter;stroke-opacity:1"
       d="m 142.70364,72.484842 c 0,0 -0.33073,-0.992187 0.51972,-0.566965 0.85044,0.425225 0.54334,1.535528 0.54334,1.535528 l -0.18899,1.700895 0.94494,-0.118118 c 0,0 1.39379,-0.165364 0.77957,0.637834 -0.61421,0.803201 -2.92931,0.212611 -2.92931,0.212611 0,0 -0.0236,-2.031622 0.21261,-2.551337 0.23623,-0.519719 0.11812,-0.850448 0.11812,-0.850448 z"
       id="path1014" />
    <path
       style="fill:#ffffff;fill-opacity:1;stroke:#000000;stroke-width:0.26458300000000001px;stroke-linecap:butt;stroke-linejoin:miter;stroke-opacity:1"
       d="m 153.23303,72.41012 c 0,0 -0.33073,-0.992187 0.51972,-0.566965 0.85044,0.425225 0.54334,1.535528 0.54334,1.535528 l -0.18899,1.700895 0.94494,-0.118118 c 0,0 1.39379,-0.165364 0.77957,0.637834 -0.61421,0.803201 -2.92931,0.212611 -2.92931,0.212611 0,0 -0.0236,-2.031622 0.21261,-2.551337 0.23623,-0.519719 0.11812,-0.850448 0.11812,-0.850448 z"
       id="path1014-8" />
    <path
       style="fill:#ffffff;fill-opacity:1;stroke:#000000;stroke-width:0.26458300000000001px;stroke-linecap:butt;stroke-linejoin:miter;stroke-opacity:1"
       d="m 123.40322,72.837857 c 0,0 -0.94494,1.476468 -0.0472,2.69308 0.89769,1.21661 2.56315,-0.330729 2.56315,-0.330729 0,0 0.34254,-0.413412 0.27167,-1.311106 -0.0709,-0.897694 -0.10631,-1.370163 -0.10631,-1.370163 0,0 -0.0827,-0.224425 -0.42522,-0.236236 -0.34254,-0.0118 -0.59059,0.0118 -0.59059,0.0118 0,0 -0.34254,-0.09449 -0.24804,0.59059 0.0945,0.68508 0.0709,1.771764 0.0709,1.771764 0,0 -0.30711,0.826823 -0.51972,0.472469 -0.21261,-0.354354 -0.31892,-1.133928 -0.31892,-1.133928 0,0 -0.1063,-0.578776 0.0118,-0.779576 0.11812,-0.2008 -0.0118,-0.413411 -0.0118,-0.413411 0,0 -0.37797,-0.188989 -0.64964,0.03544 z"
       id="path966-2" />
    <path
       id="path954-0"
       style="fill:#ffffff;fill-opacity:1;stroke:#000000;stroke-width:0.99999899999999997px;stroke-linecap:butt;stroke-linejoin:miter;stroke-opacity:1"
       d="M 388.54883 273.44531 C 386.36131 273.356 384.35352 274.24805 384.35352 274.24805 C 384.35352 274.24805 380.87165 277.28432 380.33594 279.65039 C 379.80023 282.01645 379.71094 283.75781 379.71094 283.75781 C 379.71094 283.75781 380.06782 285.85463 381.22852 286.3457 C 382.38925 286.83678 383.28209 287.59708 385.60352 287.50781 C 387.92498 287.41862 389.71094 285.99023 389.71094 285.99023 C 389.71094 285.99023 391.62973 284.11523 392.07617 282.55273 C 392.52261 280.99023 393.46091 276.34682 392.52344 275.58789 C 391.58593 274.82896 390.73634 273.5346 388.54883 273.44531 z M 387.33398 276.16992 C 388.40642 276.39659 387.63758 286.34262 385.29102 283.71289 C 382.70174 280.81107 386.94336 276.43555 386.94336 276.43555 C 387.09403 276.22628 387.22304 276.14647 387.33398 276.16992 z "
       transform="scale(0.26458333)" />
    <path
       id="path944-4"
       style="fill:#ffffff;fill-opacity:1;stroke:#000000;stroke-width:0.99999899999999997px;stroke-linecap:butt;stroke-linejoin:miter;stroke-opacity:1"
       d="M 632.29102 272.95312 C 631.62791 273.00021 630.92355 273.29018 630.37109 274.09375 C 628.89791 276.23661 626.71094 282.62109 626.71094 282.62109 L 625.77344 285.70117 C 625.77344 285.70117 625.23718 285.87931 625.05859 286.59375 C 624.8802 287.30804 625.32617 287.97656 625.32617 287.97656 C 625.32617 287.97656 626.75531 288.60165 627.60352 287.66406 C 628.45175 286.72659 630.46094 284.31641 630.46094 284.31641 L 634.03125 284.18359 L 634.83594 285.78906 C 634.83594 285.78906 635.68303 287.2182 637.15625 287.75391 C 638.62947 288.28962 640.41602 286.95117 640.41602 286.95117 C 640.41602 286.95117 641.22013 285.88003 639.88086 283.87109 C 638.54155 281.86216 634.38867 273.46875 634.38867 273.46875 C 634.38867 273.46875 633.39619 272.87465 632.29102 272.95312 z M 631.93359 278.51367 L 633.40625 281.99609 L 630.99609 282.03906 L 631.93359 278.51367 z "
       transform="scale(0.26458333)" />
    <path
       id="path958-5"
       style="fill:#ffffff;fill-opacity:1;stroke:#000000;stroke-width:0.99999899999999997px;stroke-linecap:butt;stroke-linejoin:miter;stroke-opacity:1"
       d="M 650.03125 273.06836 C 648.17927 273.07463 646.16992 273.27539 646.16992 273.27539 C 646.16992 273.27539 644.96598 273.1412 644.83203 274.16797 C 643.98383 280.8644 643.89453 284.74805 643.89453 284.74805 C 643.89453 284.74805 643.35825 285.64174 645.05469 286.13281 C 646.75113 286.62385 648.53711 285.68555 648.53711 285.68555 L 648.75977 281.84766 L 652.55469 284.03516 C 652.55469 284.03516 655.72545 285.46303 656.79688 284.25781 C 657.8683 283.05245 656.57227 281.58008 656.57227 281.58008 L 651.57227 279.39258 C 651.57227 279.39258 653.00166 279.07919 654.20703 277.69531 C 655.4124 276.3114 654.33984 274.66016 654.33984 274.66016 C 654.33984 274.66016 653.76089 273.36579 651.75195 273.14258 C 651.24972 273.08677 650.64858 273.06627 650.03125 273.06836 z M 649.02734 275.15039 C 653.2239 276.13254 648.89453 277.07031 648.89453 277.07031 L 649.02734 275.15039 z "
       transform="scale(0.26458333)" />
    <path
       style="fill:#ffffff;fill-opacity:1;stroke:#000000;stroke-width:0.26458300000000001px;stroke-linecap:butt;stroke-linejoin:miter;stroke-opacity:1"
       d="M 163.90574,72.827382 Z"
       id="path1130" />
    <path
       style="fill:#ffffff;fill-opacity:1;stroke:#000000;stroke-width:0.26458300000000001px;stroke-linecap:butt;stroke-linejoin:miter;stroke-opacity:1"
       d="M 163.90574,72.82738 Z"
       id="path1132" />
    <path
       style="fill:#ffffff;fill-opacity:1;stroke:#000000;stroke-width:0.26458300000000001px;stroke-linecap:butt;stroke-linejoin:miter;stroke-opacity:1"
       d="m 162.7482,74.752703 c 0,0 -0.11811,0.224426 0,0 0.11812,-0.224425 0.34255,-0.496094 0.34255,-0.496094 0,0 0.11811,-0.153559 0.75595,-0.188989 0.63787,-0.03544 0.57877,0.413411 0.57877,0.413411 0,0 0.0472,1.2048 0.0236,1.27567 -0.0236,0.07087 -0.34254,0.177176 -0.34254,0.177176 0,0 -0.64965,-0.01181 -0.87407,-0.07087 -0.22445,-0.05906 -0.24805,-0.271671 -0.24805,-0.271671 0,0 0.0354,0.08268 -0.14174,0.212611 -0.17718,0.12993 -0.68508,0.08268 -0.68508,0.08268 0,0 -1.05125,0.118118 -1.22842,-1.07487 -0.17718,-1.192987 0.9095,-1.96075 1.38197,-2.36235 0.47247,-0.4016 1.6064,-0.33073 1.6064,-0.33073 0,0 0.4016,0.165365 0.66146,0.38979 0.25987,0.224422 -0.0118,0.437033 -0.0118,0.437033 0,0 -0.37798,0.236236 -0.66146,-0.11812 0,0 -2.16753,-0.133827 -1.15754,1.925323 z"
       id="path1134"
       sodipodi:nodetypes="ccscsscscscscscscc" />
    <path
       style="fill:#ffffff;fill-opacity:1;stroke:#000000;stroke-width:0.26458300000000001px;stroke-linecap:butt;stroke-linejoin:miter;stroke-opacity:1"
       d="M 162.27573,75.024371 Z"
       id="path1136" />
    <path
       style="display:inline;opacity:1;fill:#ffffff;fill-opacity:1;stroke:#000000;stroke-width:0.265;stroke-linecap:butt;stroke-linejoin:miter;stroke-miterlimit:4;stroke-dasharray:none;stroke-opacity:1"
       d="m 174.97802,74.467971 c 0,0 0.10858,-0.400905 0.0752,-1.00226 -0.0334,-0.601358 -0.0752,-1.069078 -0.0752,-1.069078 0,0 0.0167,-0.542891 0.15034,-0.618062 0.13363,-0.07517 0.50948,-0.375848 0.81016,0.0167 0.30068,0.392554 0.0585,2.463892 0.0585,2.463892 0,0 -0.27563,0.601356 -0.47608,0.743344 -0.20045,0.141986 -0.51783,-0.05011 -0.51783,-0.05011 0,0 -0.10858,-0.141986 -0.0251,-0.484426 z"
       id="path1138" />
    <path
       style="fill:#ffffff;fill-opacity:1;stroke:#000000;stroke-width:0.26458300000000001px;stroke-linecap:butt;stroke-linejoin:miter;stroke-opacity:1"
       d="m 174.94461,75.988066 c 0,0 -0.67652,-0.317381 -0.008,-0.659821 0.66818,-0.34244 0.95215,0.317381 0.95215,0.317381 0,0 0.11693,0.509484 -0.94379,0.34244 z"
       id="path1141" />
  </g>
</svg>
