<?xml version="1.0" encoding="UTF-8" standalone="no"?>
<svg
   xmlns:osb="http://www.openswatchbook.org/uri/2009/osb"
   xmlns:dc="http://purl.org/dc/elements/1.1/"
   xmlns:cc="http://creativecommons.org/ns#"
   xmlns:rdf="http://www.w3.org/1999/02/22-rdf-syntax-ns#"
   xmlns:svg="http://www.w3.org/2000/svg"
   xmlns="http://www.w3.org/2000/svg"
   xmlns:sodipodi="http://sodipodi.sourceforge.net/DTD/sodipodi-0.dtd"
   xmlns:inkscape="http://www.inkscape.org/namespaces/inkscape"
   width="146mm"
   height="117mm"
   viewBox="0 0 146 117"
   version="1.1"
   id="svg8"
   inkscape:version="1.0.2 (e86c8708, 2021-01-15)"
   sodipodi:docname="edfabsLogoWhite.svg">
  <defs
     id="defs2">
    <linearGradient
       id="linearGradient3404"
       osb:paint="solid">
      <stop
         style="stop-color:#000000;stop-opacity:1;"
         offset="0"
         id="stop3402" />
    </linearGradient>
    <linearGradient
       id="linearGradient3398"
       osb:paint="solid">
      <stop
         style="stop-color:#ffffff;stop-opacity:1;"
         offset="0"
         id="stop3396" />
    </linearGradient>
    <linearGradient
       id="linearGradient949"
       osb:paint="solid">
      <stop
         style="stop-color:#000000;stop-opacity:1;"
         offset="0"
         id="stop947" />
    </linearGradient>
    <linearGradient
       id="linearGradient943"
       osb:paint="solid">
      <stop
         style="stop-color:#ff0000;stop-opacity:1;"
         offset="0"
         id="stop941" />
    </linearGradient>
  </defs>
  <sodipodi:namedview
     id="base"
     pagecolor="#ffffff"
     bordercolor="#666666"
     borderopacity="1.0"
     inkscape:pageopacity="0.0"
     inkscape:pageshadow="2"
     inkscape:zoom="1.079976"
     inkscape:cx="256.95955"
     inkscape:cy="224.20941"
     inkscape:document-units="mm"
     inkscape:current-layer="layer3"
     inkscape:document-rotation="0"
     showgrid="false"
     inkscape:snap-global="false"
     inkscape:window-width="1280"
     inkscape:window-height="683"
     inkscape:window-x="0"
     inkscape:window-y="305"
     inkscape:window-maximized="1" />
  <metadata
     id="metadata5">
    <rdf:RDF>
      <cc:Work
         rdf:about="">
        <dc:format>image/svg+xml</dc:format>
        <dc:type
           rdf:resource="http://purl.org/dc/dcmitype/StillImage" />
        <dc:title></dc:title>
      </cc:Work>
    </rdf:RDF>
  </metadata>
  <g
     inkscape:groupmode="layer"
     id="layer3"
     inkscape:label="Layer 3"
     style="display:inline">
    <path
       style="display:inline;opacity:1;fill:#ffffff;fill-opacity:1;stroke:#ffffff;stroke-width:0.26458300000000001px;stroke-linecap:butt;stroke-linejoin:miter;stroke-opacity:1"
       d="m 124.27688,15.666633 c 0.88015,0 13.20222,4.048681 13.20222,4.048681 0,0 4.40074,0.704117 5.63295,10.033686 1.2322,9.32957 2.56967,30.0608 2.28838,42.95122 -0.31301,14.34382 -0.83743,13.85996 -0.83743,13.85996 0,0 -1.28377,4.50751 -5.72722,6.48655 -3.55951,1.58535 -12.27547,1.84572 -12.27547,1.84572 0,0 8.27835,-11.2784 8.54239,-20.784 0.26404,-9.50559 -1.8917,-16.17652 -2.38958,-17.1723 l -0.10113,-0.33451 c 0,0 3.61154,-1.36665 3.75795,-6.00508 0.18608,-5.89531 -2.72328,-19.89282 -4.90154,-24.000385 -2.17826,-4.107562 -7.3905,-10.735685 -7.91951,-11.140218 z"
       id="path1433"
       sodipodi:nodetypes="ccsscscsccsscc" />
    <path
       style="fill:#ffffff;fill-opacity:1;fill-rule:nonzero;stroke:#000000;stroke-width:0.265;stroke-linecap:butt;stroke-linejoin:miter;stroke-miterlimit:4;stroke-dasharray:none;stroke-opacity:1"
       d="m 124.80497,49.9924 0.044,2.64045 c 0,0 0.93733,0.08606 4.53147,0.41192 2.09856,0.190263 3.18096,3.408618 3.30128,3.652512 0,0 3.182,-1.032502 3.60787,-5.084162 0.38611,-3.6734 1.21002,-23.53988 -14.42557,-37.736986 -13.87115,-12.594997 -73.455884,-20.38923 -103.732973,5.66315 0,0 -41.190923,41.542986 4.928829,79.213316 0,0 51.400628,38.02239 100.688914,-1.2322 0,0 8.05565,-5.8819 10.20972,-16.19473 3.31875,-15.88884 -1.19341,-24.858965 -2.24958,-26.443235 -1.05618,-1.58427 -0.1268,-2.161575 -10.33653,-1.897525 -10.20972,0.26404 -31.949366,1.84831 -34.677826,2.64044 -2.72846,0.79213 -3.43258,0.35206 -2.55243,5.10486 0.88015,4.7528 1.32022,5.01684 1.32022,5.01684 0,0 1.05618,2.81647 4.48875,2.55243 3.43258,-0.26405 19.803326,-1.67228 19.803326,-1.67228 0,0 6.5131,-1.23221 5.98501,3.43258 -0.52809,4.66478 -5.01684,19.09921 -25.172226,22.70781 -20.15539,3.60861 -38.726511,4.48876 -48.496153,-14.8745 0,0 -3.432577,-4.66478 4.22471,-5.3689 7.657287,-0.70412 23.587965,-2.9925 23.587965,-2.9925 0,0 4.752798,0 5.280888,-3.43258 0.52809,-3.43258 0.88015,-7.39324 0.88015,-7.39324 0,0 0.96816,-3.25655 -3.872654,-2.90449 -4.840813,0.35206 -25.084216,1.40824 -25.084216,1.40824 0,0 -21.12355,2.64044 -18.395091,-11.882 2.728458,-14.52244 18.219062,-21.123552 18.219062,-21.123552 0,0 38.462469,-15.050529 62.138435,-1.760296 0,0 17.2509,7.569268 15.75465,27.548628 z"
       id="path1431"
       sodipodi:nodetypes="ccscsscccssssscscsscscscscsccc" />
  </g>
</svg>
